<mxfile host="app.diagrams.net" modified="2023-07-14T15:38:38.224Z" agent="Mozilla/5.0 (Macintosh; Intel Mac OS X 10.15; rv:109.0) Gecko/20100101 Firefox/114.0" etag="Gxh8F_tNtHpfohg_m1qz" version="21.6.2" type="google">
  <diagram name="Page-1" id="MtjYl_bm7dS3qULlEXLl">
    <mxGraphModel grid="1" page="1" gridSize="10" guides="1" tooltips="1" connect="1" arrows="1" fold="1" pageScale="1" pageWidth="850" pageHeight="1100" math="0" shadow="0">
      <root>
        <mxCell id="0" />
        <mxCell id="1" parent="0" />
        <mxCell id="a-JkapMppn6w0ctgOO41-13" value="" style="rounded=0;whiteSpace=wrap;html=1;" vertex="1" parent="1">
          <mxGeometry x="180" y="40" width="360" height="440" as="geometry" />
        </mxCell>
        <mxCell id="a-JkapMppn6w0ctgOO41-15" style="rounded=0;orthogonalLoop=1;jettySize=auto;html=1;entryX=0;entryY=0.5;entryDx=0;entryDy=0;endArrow=none;endFill=0;exitX=1;exitY=0.3333333333333333;exitDx=0;exitDy=0;exitPerimeter=0;" edge="1" parent="1" source="a-JkapMppn6w0ctgOO41-1" target="a-JkapMppn6w0ctgOO41-14">
          <mxGeometry relative="1" as="geometry" />
        </mxCell>
        <mxCell id="a-JkapMppn6w0ctgOO41-1" value="Customer" style="shape=umlActor;verticalLabelPosition=bottom;verticalAlign=top;html=1;" vertex="1" parent="1">
          <mxGeometry x="50" y="190" width="30" height="60" as="geometry" />
        </mxCell>
        <mxCell id="a-JkapMppn6w0ctgOO41-5" value="System Developers" style="shape=umlActor;verticalLabelPosition=bottom;verticalAlign=top;html=1;" vertex="1" parent="1">
          <mxGeometry x="620" y="110" width="30" height="60" as="geometry" />
        </mxCell>
        <mxCell id="a-JkapMppn6w0ctgOO41-16" value="" style="rounded=0;orthogonalLoop=1;jettySize=auto;html=1;entryX=1;entryY=0.5;entryDx=0;entryDy=0;endArrow=none;endFill=0;exitX=0;exitY=0.3333333333333333;exitDx=0;exitDy=0;exitPerimeter=0;" edge="1" parent="1" source="a-JkapMppn6w0ctgOO41-7" target="a-JkapMppn6w0ctgOO41-14">
          <mxGeometry relative="1" as="geometry" />
        </mxCell>
        <mxCell id="a-JkapMppn6w0ctgOO41-7" value="Car Rental &lt;br&gt;Service Representative" style="shape=umlActor;verticalLabelPosition=bottom;verticalAlign=top;html=1;" vertex="1" parent="1">
          <mxGeometry x="610" width="30" height="60" as="geometry" />
        </mxCell>
        <mxCell id="a-JkapMppn6w0ctgOO41-8" value="Payment Vendor" style="shape=umlActor;verticalLabelPosition=bottom;verticalAlign=top;html=1;" vertex="1" parent="1">
          <mxGeometry x="620" y="195" width="30" height="60" as="geometry" />
        </mxCell>
        <mxCell id="a-JkapMppn6w0ctgOO41-9" value="Legal" style="shape=umlActor;verticalLabelPosition=bottom;verticalAlign=top;html=1;" vertex="1" parent="1">
          <mxGeometry x="620" y="280" width="30" height="60" as="geometry" />
        </mxCell>
        <mxCell id="a-JkapMppn6w0ctgOO41-10" value="Insurance&lt;br&gt; Representative" style="shape=umlActor;verticalLabelPosition=bottom;verticalAlign=top;html=1;" vertex="1" parent="1">
          <mxGeometry x="630" y="460" width="30" height="60" as="geometry" />
        </mxCell>
        <mxCell id="a-JkapMppn6w0ctgOO41-12" value="Customer Service &lt;br&gt;Team" style="shape=umlActor;verticalLabelPosition=bottom;verticalAlign=top;html=1;" vertex="1" parent="1">
          <mxGeometry x="630" y="360" width="30" height="60" as="geometry" />
        </mxCell>
        <mxCell id="a-JkapMppn6w0ctgOO41-14" value="Create reservation" style="ellipse;whiteSpace=wrap;html=1;" vertex="1" parent="1">
          <mxGeometry x="290" y="60" width="140" height="40" as="geometry" />
        </mxCell>
        <mxCell id="a-JkapMppn6w0ctgOO41-17" value="Cancel reservation" style="ellipse;whiteSpace=wrap;html=1;" vertex="1" parent="1">
          <mxGeometry x="240" y="120" width="140" height="40" as="geometry" />
        </mxCell>
        <mxCell id="a-JkapMppn6w0ctgOO41-18" style="rounded=0;orthogonalLoop=1;jettySize=auto;html=1;entryX=0;entryY=0.5;entryDx=0;entryDy=0;endArrow=none;endFill=0;exitX=1;exitY=0.3333333333333333;exitDx=0;exitDy=0;exitPerimeter=0;" edge="1" parent="1" source="a-JkapMppn6w0ctgOO41-1" target="a-JkapMppn6w0ctgOO41-17">
          <mxGeometry relative="1" as="geometry">
            <mxPoint x="150" y="135" as="sourcePoint" />
            <mxPoint x="300" y="90" as="targetPoint" />
          </mxGeometry>
        </mxCell>
        <mxCell id="a-JkapMppn6w0ctgOO41-19" style="rounded=0;orthogonalLoop=1;jettySize=auto;html=1;entryX=0;entryY=0.3333333333333333;entryDx=0;entryDy=0;endArrow=none;endFill=0;exitX=1;exitY=0.5;exitDx=0;exitDy=0;entryPerimeter=0;jumpStyle=arc;" edge="1" parent="1" source="a-JkapMppn6w0ctgOO41-17" target="a-JkapMppn6w0ctgOO41-7">
          <mxGeometry relative="1" as="geometry">
            <mxPoint x="160" y="145" as="sourcePoint" />
            <mxPoint x="310" y="100" as="targetPoint" />
          </mxGeometry>
        </mxCell>
        <mxCell id="a-JkapMppn6w0ctgOO41-20" value="" style="endArrow=none;dashed=1;html=1;rounded=0;entryX=1;entryY=1;entryDx=0;entryDy=0;exitX=0.5;exitY=0;exitDx=0;exitDy=0;endFill=0;startArrow=block;startFill=1;" edge="1" parent="1" source="a-JkapMppn6w0ctgOO41-21" target="a-JkapMppn6w0ctgOO41-14">
          <mxGeometry width="50" height="50" relative="1" as="geometry">
            <mxPoint x="190" y="330" as="sourcePoint" />
            <mxPoint x="240" y="280" as="targetPoint" />
          </mxGeometry>
        </mxCell>
        <mxCell id="a-JkapMppn6w0ctgOO41-22" value="&amp;lt;&amp;lt;includes&amp;gt;&amp;gt;" style="edgeLabel;html=1;align=center;verticalAlign=middle;resizable=0;points=[];" vertex="1" connectable="0" parent="a-JkapMppn6w0ctgOO41-20">
          <mxGeometry x="-0.1899" y="-1" relative="1" as="geometry">
            <mxPoint as="offset" />
          </mxGeometry>
        </mxCell>
        <mxCell id="a-JkapMppn6w0ctgOO41-21" value="Collect payment" style="ellipse;whiteSpace=wrap;html=1;" vertex="1" parent="1">
          <mxGeometry x="400" y="180" width="120" height="30" as="geometry" />
        </mxCell>
        <mxCell id="a-JkapMppn6w0ctgOO41-23" style="rounded=0;orthogonalLoop=1;jettySize=auto;html=1;entryX=0;entryY=0.3333333333333333;entryDx=0;entryDy=0;endArrow=none;endFill=0;exitX=1;exitY=0.5;exitDx=0;exitDy=0;entryPerimeter=0;" edge="1" parent="1" source="a-JkapMppn6w0ctgOO41-21" target="a-JkapMppn6w0ctgOO41-8">
          <mxGeometry relative="1" as="geometry">
            <mxPoint x="360" y="150" as="sourcePoint" />
            <mxPoint x="600" y="110" as="targetPoint" />
          </mxGeometry>
        </mxCell>
        <mxCell id="a-JkapMppn6w0ctgOO41-24" value="Issue Refund" style="ellipse;whiteSpace=wrap;html=1;" vertex="1" parent="1">
          <mxGeometry x="260" y="210" width="120" height="30" as="geometry" />
        </mxCell>
        <mxCell id="a-JkapMppn6w0ctgOO41-25" value="" style="endArrow=none;dashed=1;html=1;rounded=0;entryX=0.5;entryY=1;entryDx=0;entryDy=0;exitX=0.5;exitY=0;exitDx=0;exitDy=0;endFill=0;startArrow=block;startFill=1;" edge="1" parent="1" source="a-JkapMppn6w0ctgOO41-24" target="a-JkapMppn6w0ctgOO41-17">
          <mxGeometry width="50" height="50" relative="1" as="geometry">
            <mxPoint x="440" y="185" as="sourcePoint" />
            <mxPoint x="419" y="104" as="targetPoint" />
          </mxGeometry>
        </mxCell>
        <mxCell id="a-JkapMppn6w0ctgOO41-26" value="&amp;lt;&amp;lt;includes&amp;gt;&amp;gt;" style="edgeLabel;html=1;align=center;verticalAlign=middle;resizable=0;points=[];" vertex="1" connectable="0" parent="a-JkapMppn6w0ctgOO41-25">
          <mxGeometry x="-0.1899" y="-1" relative="1" as="geometry">
            <mxPoint as="offset" />
          </mxGeometry>
        </mxCell>
        <mxCell id="a-JkapMppn6w0ctgOO41-27" style="rounded=0;orthogonalLoop=1;jettySize=auto;html=1;entryX=0;entryY=0.3333333333333333;entryDx=0;entryDy=0;endArrow=none;endFill=0;exitX=1;exitY=0.5;exitDx=0;exitDy=0;entryPerimeter=0;" edge="1" parent="1" source="a-JkapMppn6w0ctgOO41-24" target="a-JkapMppn6w0ctgOO41-8">
          <mxGeometry relative="1" as="geometry">
            <mxPoint x="500" y="200" as="sourcePoint" />
            <mxPoint x="620" y="320" as="targetPoint" />
          </mxGeometry>
        </mxCell>
        <mxCell id="a-JkapMppn6w0ctgOO41-30" value="Modify data" style="ellipse;whiteSpace=wrap;html=1;" vertex="1" parent="1">
          <mxGeometry x="400" y="240" width="120" height="30" as="geometry" />
        </mxCell>
        <mxCell id="a-JkapMppn6w0ctgOO41-31" style="rounded=0;orthogonalLoop=1;jettySize=auto;html=1;entryX=0;entryY=0.3333333333333333;entryDx=0;entryDy=0;endArrow=none;endFill=0;exitX=1;exitY=0.5;exitDx=0;exitDy=0;entryPerimeter=0;jumpStyle=arc;" edge="1" parent="1" source="a-JkapMppn6w0ctgOO41-30" target="a-JkapMppn6w0ctgOO41-5">
          <mxGeometry relative="1" as="geometry">
            <mxPoint x="350" y="230" as="sourcePoint" />
            <mxPoint x="620" y="230" as="targetPoint" />
          </mxGeometry>
        </mxCell>
        <mxCell id="a-JkapMppn6w0ctgOO41-32" value="Customer Assistance" style="ellipse;whiteSpace=wrap;html=1;" vertex="1" parent="1">
          <mxGeometry x="220" y="310" width="140" height="40" as="geometry" />
        </mxCell>
        <mxCell id="a-JkapMppn6w0ctgOO41-33" style="rounded=0;orthogonalLoop=1;jettySize=auto;html=1;entryX=0;entryY=0.3333333333333333;entryDx=0;entryDy=0;endArrow=none;endFill=0;exitX=1;exitY=0.5;exitDx=0;exitDy=0;entryPerimeter=0;jumpStyle=arc;" edge="1" parent="1" source="a-JkapMppn6w0ctgOO41-32" target="a-JkapMppn6w0ctgOO41-12">
          <mxGeometry relative="1" as="geometry">
            <mxPoint x="530" y="285" as="sourcePoint" />
            <mxPoint x="610" y="320" as="targetPoint" />
          </mxGeometry>
        </mxCell>
        <mxCell id="a-JkapMppn6w0ctgOO41-34" style="rounded=0;orthogonalLoop=1;jettySize=auto;html=1;entryX=1;entryY=0.3333333333333333;entryDx=0;entryDy=0;endArrow=none;endFill=0;exitX=0;exitY=0.5;exitDx=0;exitDy=0;entryPerimeter=0;jumpStyle=none;" edge="1" parent="1" source="a-JkapMppn6w0ctgOO41-32" target="a-JkapMppn6w0ctgOO41-1">
          <mxGeometry relative="1" as="geometry">
            <mxPoint x="460" y="340" as="sourcePoint" />
            <mxPoint x="600" y="410" as="targetPoint" />
          </mxGeometry>
        </mxCell>
        <mxCell id="a-JkapMppn6w0ctgOO41-35" value="Verify customer elgibility" style="ellipse;whiteSpace=wrap;html=1;" vertex="1" parent="1">
          <mxGeometry x="220" y="250" width="140" height="40" as="geometry" />
        </mxCell>
        <mxCell id="a-JkapMppn6w0ctgOO41-36" style="rounded=0;orthogonalLoop=1;jettySize=auto;html=1;entryX=1;entryY=0.5;entryDx=0;entryDy=0;endArrow=none;endFill=0;exitX=0;exitY=0.3333333333333333;exitDx=0;exitDy=0;exitPerimeter=0;jumpStyle=arc;jumpSize=7;" edge="1" parent="1" source="a-JkapMppn6w0ctgOO41-9" target="a-JkapMppn6w0ctgOO41-35">
          <mxGeometry relative="1" as="geometry">
            <mxPoint x="150" y="130" as="sourcePoint" />
            <mxPoint x="220" y="150" as="targetPoint" />
          </mxGeometry>
        </mxCell>
        <mxCell id="a-JkapMppn6w0ctgOO41-37" style="rounded=0;orthogonalLoop=1;jettySize=auto;html=1;entryX=1;entryY=0.3333333333333333;entryDx=0;entryDy=0;endArrow=none;endFill=0;exitX=0;exitY=0.5;exitDx=0;exitDy=0;entryPerimeter=0;" edge="1" parent="1" source="a-JkapMppn6w0ctgOO41-35" target="a-JkapMppn6w0ctgOO41-1">
          <mxGeometry relative="1" as="geometry">
            <mxPoint x="150" y="130" as="sourcePoint" />
            <mxPoint x="230" y="160" as="targetPoint" />
          </mxGeometry>
        </mxCell>
        <mxCell id="a-JkapMppn6w0ctgOO41-38" value="Insure Customer" style="ellipse;whiteSpace=wrap;html=1;" vertex="1" parent="1">
          <mxGeometry x="320" y="370" width="140" height="40" as="geometry" />
        </mxCell>
        <mxCell id="a-JkapMppn6w0ctgOO41-39" value="" style="endArrow=none;dashed=1;html=1;rounded=0;entryX=0.755;entryY=0.944;entryDx=0;entryDy=0;exitX=0.5;exitY=0;exitDx=0;exitDy=0;endFill=0;startArrow=block;startFill=1;entryPerimeter=0;" edge="1" parent="1" source="a-JkapMppn6w0ctgOO41-38" target="a-JkapMppn6w0ctgOO41-14">
          <mxGeometry width="50" height="50" relative="1" as="geometry">
            <mxPoint x="470" y="190" as="sourcePoint" />
            <mxPoint x="419" y="104" as="targetPoint" />
          </mxGeometry>
        </mxCell>
        <mxCell id="a-JkapMppn6w0ctgOO41-40" value="&amp;lt;&amp;lt;includes&amp;gt;&amp;gt;" style="edgeLabel;html=1;align=center;verticalAlign=middle;resizable=0;points=[];" vertex="1" connectable="0" parent="a-JkapMppn6w0ctgOO41-39">
          <mxGeometry x="-0.1899" y="-1" relative="1" as="geometry">
            <mxPoint x="-3" y="45" as="offset" />
          </mxGeometry>
        </mxCell>
        <mxCell id="a-JkapMppn6w0ctgOO41-41" style="rounded=0;orthogonalLoop=1;jettySize=auto;html=1;entryX=0;entryY=0.3333333333333333;entryDx=0;entryDy=0;endArrow=none;endFill=0;exitX=1;exitY=0.5;exitDx=0;exitDy=0;entryPerimeter=0;jumpStyle=none;" edge="1" parent="1" source="a-JkapMppn6w0ctgOO41-38" target="a-JkapMppn6w0ctgOO41-10">
          <mxGeometry relative="1" as="geometry">
            <mxPoint x="300" y="480" as="sourcePoint" />
            <mxPoint x="160" y="360" as="targetPoint" />
          </mxGeometry>
        </mxCell>
      </root>
    </mxGraphModel>
  </diagram>
</mxfile>
